<svg width="180" height="180" viewBox="0 0 180 180" fill="none" xmlns="http://www.w3.org/2000/svg">
  <defs>
    <linearGradient id="brand" x1="0" y1="0" x2="1" y2="1">
      <stop offset="0%" stop-color="#3525cd"/>
      <stop offset="100%" stop-color="#712ae2"/>
    </linearGradient>
  </defs>
  <rect width="180" height="180" rx="37" fill="url(#brand)"/>
  <!-- auto_awesome Material Symbol (filled) scaled to fit the 180x180 canvas -->
  <g transform="translate(20 20) scale(5.8333)" fill="white">
    <!-- top-right sparkle -->
    <path d="M19 9L20.25 6.25L23 5L20.25 3.75L19 1L17.75 3.75L15 5L17.75 6.25Z"/>
    <!-- large center sparkle -->
    <path d="M11.5 9.5L9 4L6.5 9.5L1 12L6.5 14.5L9 20L11.5 14.5L17 12Z"/>
    <!-- bottom-right sparkle -->
    <path d="M19 15L17.75 17.75L15 19L17.75 20.25L19 23L20.25 20.25L23 19L20.25 17.75Z"/>
  </g>
</svg>
